<svg width="156" height="145" viewBox="0 0 156 145" fill="none" xmlns="http://www.w3.org/2000/svg">
<path d="M57.8118 36.9843C66.5311 21.0108 89.4689 21.0108 98.1882 36.9843L126.98 89.7301C135.346 105.057 124.253 123.75 106.792 123.75H49.2082C31.7467 123.75 20.6538 105.057 29.0201 89.7301L57.8118 36.9843Z" fill="#4AAB4D"/>
<path d="M45.0625 71.8125L45.3182 69.5455H58.8267L58.5625 71.8125H53.125L51.3608 87H48.7358L50.5 71.8125H45.0625ZM63.2372 87.2642C61.9986 87.2642 60.9503 86.9801 60.0923 86.4119C59.2344 85.8437 58.6094 85.0483 58.2173 84.0256C57.831 82.9972 57.7145 81.8011 57.8679 80.4375C58.0213 79.0909 58.402 77.9148 59.0099 76.9091C59.6236 75.9034 60.4134 75.125 61.3793 74.5739C62.3509 74.017 63.4446 73.7386 64.6605 73.7386C65.9048 73.7386 66.9531 74.0256 67.8054 74.5994C68.6634 75.1676 69.2884 75.9659 69.6804 76.9943C70.0724 78.0227 70.1918 79.2216 70.0384 80.5909C69.8849 81.9318 69.4986 83.1023 68.8793 84.1023C68.2656 85.1023 67.4759 85.8807 66.5099 86.4375C65.5497 86.9886 64.4588 87.2642 63.2372 87.2642ZM63.3395 85.125C64.152 85.125 64.8509 84.9119 65.4361 84.4858C66.0213 84.054 66.4872 83.483 66.8338 82.7727C67.1804 82.0625 67.4048 81.2812 67.5071 80.429C67.598 79.6051 67.5582 78.8494 67.3878 78.1619C67.2173 77.4687 66.8991 76.9148 66.4332 76.5C65.973 76.0795 65.3509 75.8693 64.5668 75.8693C63.7543 75.8693 63.0526 76.0852 62.4616 76.517C61.8764 76.9489 61.4105 77.5227 61.0639 78.2386C60.7173 78.9545 60.4957 79.7358 60.3991 80.5824C60.3082 81.4062 60.3452 82.1619 60.5099 82.8494C60.6804 83.5369 60.9986 84.0881 61.4645 84.5028C61.9304 84.9176 62.5554 85.125 63.3395 85.125ZM72.1413 87L73.6669 73.9091H76.1385L75.8913 75.9886H76.0277C76.3459 75.2841 76.8317 74.7301 77.4851 74.3267C78.1385 73.9176 78.8487 73.7131 79.6158 73.7131C79.7805 73.7131 79.968 73.7187 80.1783 73.7301C80.3942 73.7358 80.5675 73.75 80.6982 73.7727L80.4084 76.2102C80.3118 76.1818 80.1328 76.1506 79.8714 76.1165C79.6158 76.0767 79.3544 76.0568 79.0874 76.0568C78.4851 76.0568 77.9339 76.1847 77.4339 76.4403C76.9396 76.6903 76.5305 77.0398 76.2067 77.4886C75.8828 77.9318 75.6839 78.4375 75.6101 79.0057L74.6896 87H72.1413ZM85.848 92.1818C84.8026 92.1818 83.9219 92.0455 83.206 91.7727C82.4957 91.5 81.9276 91.1392 81.5014 90.6903C81.081 90.2415 80.7827 89.75 80.6065 89.2159L82.9162 88.3125C83.0355 88.5625 83.206 88.8267 83.4276 89.1051C83.6491 89.3892 83.9673 89.6307 84.3821 89.8295C84.8026 90.0284 85.3679 90.1278 86.0781 90.1278C87.044 90.1278 87.8736 89.892 88.5668 89.4205C89.2599 88.9545 89.6662 88.2102 89.7855 87.1875L90.0668 84.6136H89.9048C89.723 84.892 89.4702 85.2017 89.1463 85.5426C88.8224 85.8835 88.3963 86.179 87.8679 86.429C87.3395 86.679 86.6747 86.804 85.8736 86.804C84.8395 86.804 83.9361 86.5625 83.1634 86.0795C82.3963 85.5909 81.8253 84.8722 81.4503 83.9233C81.081 82.9687 80.9787 81.7955 81.1435 80.4034C81.3026 79.0114 81.6776 77.8182 82.2685 76.8239C82.8594 75.8295 83.598 75.0682 84.4844 74.5398C85.3764 74.0057 86.3509 73.7386 87.4077 73.7386C88.2202 73.7386 88.8594 73.875 89.3253 74.1477C89.7969 74.4148 90.152 74.7273 90.3906 75.0852C90.6293 75.4432 90.8082 75.7585 90.9276 76.0312H91.1151L91.3537 73.9091H93.8509L92.3082 87.2898C92.1776 88.4148 91.8111 89.3381 91.2088 90.0597C90.6065 90.7813 89.8395 91.3153 88.9077 91.6619C87.9759 92.0085 86.956 92.1818 85.848 92.1818ZM86.6491 84.6903C87.3821 84.6903 88.0241 84.5199 88.5753 84.179C89.1264 83.8324 89.5753 83.3381 89.9219 82.696C90.2685 82.0483 90.4929 81.2727 90.5952 80.3693C90.7031 79.4886 90.6605 78.7131 90.4673 78.0426C90.2741 77.3722 89.9418 76.8494 89.4702 76.4744C88.9986 76.0937 88.3935 75.9034 87.6548 75.9034C86.8821 75.9034 86.2202 76.1023 85.669 76.5C85.1179 76.892 84.6776 77.4261 84.348 78.1023C84.0241 78.7784 83.8139 79.5341 83.7173 80.3693C83.6207 81.2273 83.6605 81.9801 83.8366 82.6278C84.0185 83.2756 84.3423 83.7812 84.8082 84.1449C85.2741 84.5085 85.8878 84.6903 86.6491 84.6903ZM101.3 87.2642C100.061 87.2642 99.0128 86.9801 98.1548 86.4119C97.2969 85.8437 96.6719 85.0483 96.2798 84.0256C95.8935 82.9972 95.777 81.8011 95.9304 80.4375C96.0838 79.0909 96.4645 77.9148 97.0724 76.9091C97.6861 75.9034 98.4759 75.125 99.4418 74.5739C100.413 74.017 101.507 73.7386 102.723 73.7386C103.967 73.7386 105.016 74.0256 105.868 74.5994C106.726 75.1676 107.351 75.9659 107.743 76.9943C108.135 78.0227 108.254 79.2216 108.101 80.5909C107.947 81.9318 107.561 83.1023 106.942 84.1023C106.328 85.1023 105.538 85.8807 104.572 86.4375C103.612 86.9886 102.521 87.2642 101.3 87.2642ZM101.402 85.125C102.214 85.125 102.913 84.9119 103.499 84.4858C104.084 84.054 104.55 83.483 104.896 82.7727C105.243 82.0625 105.467 81.2812 105.57 80.429C105.661 79.6051 105.621 78.8494 105.45 78.1619C105.28 77.4687 104.962 76.9148 104.496 76.5C104.036 76.0795 103.413 75.8693 102.629 75.8693C101.817 75.8693 101.115 76.0852 100.524 76.517C99.9389 76.9489 99.473 77.5227 99.1264 78.2386C98.7798 78.9545 98.5582 79.7358 98.4616 80.5824C98.3707 81.4062 98.4077 82.1619 98.5724 82.8494C98.7429 83.5369 99.0611 84.0881 99.527 84.5028C99.9929 84.9176 100.618 85.125 101.402 85.125Z" fill="#FFFBFB"/>
</svg>
